<mxfile host="app.diagrams.net" modified="2024-03-21T13:20:45.278Z" agent="Mozilla/5.0 (Windows NT 10.0; Win64; x64) AppleWebKit/537.36 (KHTML, like Gecko) Chrome/122.0.0.0 Safari/537.36" version="24.0.7" etag="T8TesE7vqvnqbT12qIB2" type="github">
  <diagram name="PÃ¡gina-1" id="LFGMunGvwS8ptxWHIrof">
    <mxGraphModel>
      <root>
        <mxCell id="0" />
        <mxCell id="1" parent="0" />
      </root>
    </mxGraphModel>
  </diagram>
</mxfile>
